<svg width="16" height="16" viewBox="0 0 16 16" fill="none" xmlns="http://www.w3.org/2000/svg">
<path d="M8 0C12.4183 0 16 3.58172 16 8C16 12.4183 12.4183 16 8 16C3.58172 16 0 12.4183 0 8C0 3.58172 3.58172 0 8 0ZM8.1748 3.5166C7.6352 3.5166 7.14745 3.623 6.71289 3.83594C6.27834 4.04611 5.90425 4.35357 5.5918 4.75684C5.28228 5.16011 5.04356 5.65217 4.87598 6.23145C4.71132 6.80786 4.6279 7.46281 4.625 8.19531C4.625 8.99341 4.71991 9.6676 4.91016 10.2158C5.10324 10.7638 5.36505 11.2038 5.69434 11.5361C6.02379 11.8684 6.39592 12.1091 6.81055 12.2568C7.2281 12.4045 7.66155 12.4796 8.11035 12.4824C8.75808 12.4853 9.32679 12.3572 9.81543 12.0986C10.3065 11.8373 10.6883 11.4766 10.9609 11.0166C11.2363 10.5566 11.3749 10.031 11.375 9.44043C11.3749 8.89533 11.2581 8.41039 11.0254 7.9873C10.7925 7.56418 10.4736 7.23067 10.0703 6.98926C9.66717 6.74529 9.20702 6.6231 8.69043 6.62305C8.3723 6.62305 8.06912 6.67306 7.78223 6.77246C7.49831 6.86902 7.24386 7.00981 7.01953 7.19434C6.79815 7.376 6.62184 7.59626 6.49121 7.85449H6.43164C6.4374 7.00541 6.58638 6.33304 6.87891 5.83887C7.17435 5.34488 7.60681 5.09766 8.1748 5.09766C8.50977 5.09772 8.7914 5.1843 9.01855 5.35742C9.24559 5.53058 9.39475 5.76964 9.46582 6.07324H11.2852C11.2283 5.59342 11.0636 5.1596 10.791 4.77344C10.5212 4.38731 10.1626 4.08175 9.7168 3.85742C9.27097 3.63036 8.75684 3.51665 8.1748 3.5166ZM8.11523 7.95703C8.39889 7.9571 8.65171 8.02509 8.87305 8.16113C9.09448 8.2974 9.26857 8.48105 9.39355 8.71094C9.52133 8.94093 9.58489 9.20162 9.58496 9.49121C9.58495 9.78079 9.52125 10.0426 9.39355 10.2754C9.26582 10.5081 9.08939 10.6928 8.86523 10.8291C8.6408 10.9655 8.38565 11.0342 8.10156 11.0342C7.81765 11.0341 7.56318 10.9643 7.33887 10.8252C7.11744 10.686 6.94116 10.4994 6.81055 10.2666C6.6829 10.0338 6.61914 9.77615 6.61914 9.49512C6.61923 9.28521 6.6578 9.08773 6.73438 8.90332C6.81106 8.71601 6.9164 8.55111 7.0498 8.40918C7.18611 8.26725 7.34359 8.15567 7.52246 8.07617C7.70421 7.9967 7.90226 7.95703 8.11523 7.95703Z" fill="#292522" style="fill:#292522;fill:color(display-p3 0.1608 0.1451 0.1333);fill-opacity:1;"/>
</svg>
