<svg width="16" height="16" viewBox="0 0 16 16" fill="none" xmlns="http://www.w3.org/2000/svg">
<path d="M8 0C12.4183 0 16 3.58172 16 8C16 12.4183 12.4183 16 8 16C3.58172 16 0 12.4183 0 8C0 3.58172 3.58172 0 8 0ZM7.90625 3.51758C7.25584 3.51474 6.68476 3.64403 6.19336 3.90527C5.70482 4.16379 5.32347 4.52217 5.05078 4.97949C4.77832 5.43667 4.64369 5.95809 4.64648 6.54297C4.64655 7.08533 4.76228 7.56905 4.99512 7.99219C5.22805 8.4153 5.54691 8.74785 5.9502 8.98926C6.35344 9.23057 6.81223 9.35151 7.32617 9.35156C7.64714 9.35156 7.95033 9.30154 8.23438 9.20215C8.52112 9.10276 8.77559 8.96195 8.99707 8.78027C9.21844 8.59577 9.39476 8.37552 9.52539 8.12012H9.58496C9.58205 8.98341 9.43306 9.6641 9.1377 10.1611C8.84225 10.6552 8.40984 10.9023 7.8418 10.9023C7.50684 10.9023 7.2252 10.8157 6.99805 10.6426C6.77107 10.4666 6.62183 10.2191 6.55078 9.90137H4.73145C4.78833 10.3897 4.95192 10.8308 5.22168 11.2227C5.49434 11.6115 5.85407 11.9194 6.2998 12.1465C6.74568 12.3708 7.25966 12.4834 7.8418 12.4834C8.38139 12.4834 8.87023 12.3781 9.30762 12.168C9.74499 11.955 10.1191 11.6453 10.4287 11.2393C10.7383 10.8331 10.9759 10.34 11.1406 9.76074C11.3082 9.17848 11.3916 8.51569 11.3916 7.77441C11.3887 6.98506 11.2907 6.3188 11.0977 5.77637C10.9074 5.23119 10.6477 4.79335 10.3184 4.46387C9.9917 4.13436 9.61872 3.89374 9.20117 3.74316C8.78658 3.59272 8.3549 3.5176 7.90625 3.51758ZM7.91895 4.9668C8.20016 4.96681 8.45333 5.03659 8.67773 5.17578C8.90184 5.31494 9.07834 5.49961 9.20605 5.72949C9.33367 5.95944 9.39853 6.21296 9.40137 6.48828C9.40125 6.69532 9.3637 6.89179 9.28711 7.07617C9.21042 7.26062 9.10303 7.42449 8.9668 7.56641C8.83341 7.7053 8.67567 7.81511 8.49414 7.89453C8.31242 7.97398 8.1143 8.01367 7.90137 8.01367C7.6177 8.0136 7.36489 7.9467 7.14355 7.81348C6.92492 7.67719 6.75087 7.49468 6.62305 7.26758C6.49821 7.03767 6.43563 6.7788 6.43555 6.49219C6.43271 6.20828 6.49538 5.9507 6.62305 5.7207C6.75364 5.49075 6.92999 5.30723 7.15137 5.1709C7.3758 5.03453 7.63201 4.9668 7.91895 4.9668Z" fill="#FBF1E5" style="fill:#FBF1E5;fill:color(display-p3 0.9843 0.9451 0.8980);fill-opacity:1;"/>
</svg>
