<svg width="16" height="16" viewBox="0 0 16 16" fill="none" xmlns="http://www.w3.org/2000/svg">
<path d="M8 0C12.4183 0 16 3.58172 16 8C16 12.4183 12.4183 16 8 16C3.58172 16 0 12.4183 0 8C0 3.58172 3.58172 0 8 0ZM7.87305 3.51758C7.28522 3.5176 6.7598 3.61981 6.29688 3.82422C5.83673 4.02592 5.47413 4.30509 5.20996 4.66016C4.94612 5.01218 4.81356 5.41395 4.81348 5.86523C4.81358 6.34231 4.95837 6.76237 5.24805 7.12305C5.53778 7.48079 5.91609 7.70706 6.38184 7.80078V7.86035C6.02684 7.91716 5.7058 8.04751 5.41895 8.25195C5.13222 8.45356 4.90486 8.70806 4.7373 9.01465C4.57267 9.31852 4.48926 9.65312 4.48926 10.0166C4.48943 10.4879 4.6352 10.9103 4.9248 11.2822C5.21453 11.654 5.61388 11.9483 6.12207 12.1641C6.63328 12.377 7.21705 12.4834 7.87305 12.4834C8.52911 12.4834 9.1117 12.377 9.62012 12.1641C10.1313 11.9482 10.5325 11.6542 10.8223 11.2822C11.1119 10.9103 11.2577 10.4879 11.2607 10.0166C11.2579 9.65311 11.1713 9.31853 11.001 9.01465C10.8334 8.708 10.6061 8.45359 10.3193 8.25195C10.0353 8.04747 9.71845 7.9172 9.36914 7.86035V7.80078C9.82633 7.70705 10.2016 7.48077 10.4941 7.12305C10.7867 6.76521 10.9346 6.34514 10.9375 5.86523C10.9346 5.41668 10.8001 5.01614 10.5361 4.66406C10.272 4.30907 9.90823 4.02873 9.44531 3.82422C8.98518 3.61979 8.46095 3.51758 7.87305 3.51758ZM7.87305 8.57129C8.15714 8.57129 8.40918 8.62855 8.62793 8.74219C8.84637 8.85294 9.01974 9.00634 9.14746 9.20215C9.27511 9.39518 9.33882 9.61851 9.33887 9.87109C9.33878 10.118 9.27626 10.3371 9.15137 10.5273C9.02928 10.7146 8.85909 10.8628 8.64062 10.9707C8.42192 11.0758 8.16558 11.1289 7.87305 11.1289C7.58351 11.1289 7.3279 11.0757 7.10645 10.9707C6.88499 10.8628 6.71297 10.7147 6.59082 10.5273C6.46877 10.3371 6.40731 10.118 6.40723 9.87109C6.40727 9.61851 6.46992 9.39518 6.59473 9.20215C6.72253 9.00622 6.89767 8.85296 7.11914 8.74219C7.34066 8.62861 7.59191 8.57131 7.87305 8.57129ZM7.87305 4.90723C8.12292 4.90723 8.34186 4.95633 8.5293 5.05566C8.7167 5.15225 8.86474 5.2877 8.97266 5.46094C9.08044 5.6313 9.13477 5.83053 9.13477 6.05762C9.13466 6.28746 9.08051 6.49103 8.97266 6.66699C8.86476 6.84284 8.71547 6.98074 8.52539 7.08008C8.3351 7.17944 8.11728 7.22949 7.87305 7.22949C7.62902 7.22947 7.41185 7.17931 7.22168 7.08008C7.03147 6.98071 6.88138 6.84296 6.77344 6.66699C6.6656 6.49103 6.61241 6.28744 6.6123 6.05762C6.6123 5.83053 6.66459 5.6313 6.76953 5.46094C6.87745 5.2877 7.02655 5.15225 7.2168 5.05566C7.40709 4.95626 7.62596 4.90725 7.87305 4.90723Z" fill="#292522" style="fill:#292522;fill:color(display-p3 0.1608 0.1451 0.1333);fill-opacity:1;"/>
</svg>
