<svg width="16" height="16" viewBox="0 0 16 16" fill="none" xmlns="http://www.w3.org/2000/svg">
<path d="M8 0C12.4183 0 16 3.58172 16 8C16 12.4183 12.4183 16 8 16C3.58172 16 0 12.4183 0 8C0 3.58172 3.58172 0 8 0ZM8.08105 3.45801C7.54137 3.45801 7.05375 3.56434 6.61914 3.77734C6.18455 3.98757 5.81051 4.29489 5.49805 4.69824C5.18857 5.10156 4.94977 5.59354 4.78223 6.17285C4.61762 6.74928 4.53412 7.40422 4.53125 8.13672C4.53129 8.9348 4.6261 9.60904 4.81641 10.1572C5.00952 10.7051 5.27128 11.1453 5.60059 11.4775C5.93001 11.8097 6.30222 12.0505 6.7168 12.1982C7.1343 12.3459 7.56786 12.421 8.0166 12.4238C8.66424 12.4267 9.23309 12.2985 9.72168 12.04C10.2128 11.7788 10.5946 11.4179 10.8672 10.958C11.1426 10.498 11.2811 9.97237 11.2812 9.38184C11.2812 8.83671 11.1643 8.35183 10.9316 7.92871C10.6987 7.5055 10.3799 7.17213 9.97656 6.93066C9.57338 6.68662 9.11335 6.56451 8.59668 6.56445C8.2785 6.56445 7.97541 6.61444 7.68848 6.71387C7.40451 6.81045 7.15013 6.95115 6.92578 7.13574C6.7044 7.31746 6.52807 7.53759 6.39746 7.7959H6.33789C6.3436 6.94679 6.49271 6.27451 6.78516 5.78027C7.08061 5.28606 7.51293 5.03906 8.08105 5.03906C8.41611 5.03913 8.69762 5.1256 8.9248 5.29883C9.15181 5.47206 9.30107 5.71095 9.37207 6.01465H11.1914C11.1346 5.53478 10.9698 5.10105 10.6973 4.71484C10.4274 4.32864 10.0689 4.02321 9.62305 3.79883C9.17719 3.5717 8.66316 3.45806 8.08105 3.45801ZM8.02148 7.89844C8.30522 7.89851 8.55792 7.96641 8.7793 8.10254C9.00074 8.23886 9.17485 8.42237 9.2998 8.65234C9.4275 8.88236 9.49121 9.14301 9.49121 9.43262C9.49113 9.72215 9.42756 9.984 9.2998 10.2168C9.17205 10.4495 8.99563 10.6342 8.77148 10.7705C8.54711 10.9068 8.29181 10.9756 8.00781 10.9756C7.724 10.9755 7.46937 10.9056 7.24512 10.7666C7.02371 10.6275 6.84743 10.4407 6.7168 10.208C6.5891 9.97524 6.52546 9.71751 6.52539 9.43652C6.52542 9.2266 6.5641 9.02915 6.64062 8.84473C6.71727 8.65736 6.82267 8.49256 6.95605 8.35059C7.09238 8.20858 7.2498 8.09712 7.42871 8.01758C7.61051 7.93805 7.80844 7.89844 8.02148 7.89844Z" fill="#FBF1E5" style="fill:#FBF1E5;fill:color(display-p3 0.9843 0.9451 0.8980);fill-opacity:1;"/>
</svg>
