<svg width="16" height="16" viewBox="0 0 16 16" fill="none" xmlns="http://www.w3.org/2000/svg">
<path d="M8 0C12.4183 0 16 3.58172 16 8C16 12.4183 12.4183 16 8 16C3.58172 16 0 12.4183 0 8C0 3.58172 3.58172 0 8 0ZM8.00195 3.51758C7.40566 3.51764 6.86975 3.62709 6.39551 3.8457C5.92419 4.06159 5.5488 4.36175 5.27051 4.74512C4.99241 5.12845 4.84841 5.57172 4.83984 6.07422H6.6084C6.61695 5.85303 6.68396 5.65968 6.80859 5.49512C6.93348 5.3305 7.1005 5.20329 7.30762 5.11523C7.51471 5.02455 7.7436 4.97956 7.99316 4.97949C8.24015 4.97949 8.45605 5.0265 8.64062 5.12012C8.82798 5.21379 8.97294 5.34429 9.0752 5.51172C9.1802 5.67637 9.23334 5.86837 9.2334 6.08691C9.23331 6.31675 9.17385 6.51925 9.05469 6.69238C8.93545 6.8625 8.7673 6.9963 8.55176 7.09277C8.33887 7.18917 8.09254 7.23826 7.81445 7.23828H7V8.59277H7.81445C8.14382 8.59279 8.42844 8.6439 8.66699 8.74609C8.90833 8.84836 9.09291 8.9911 9.2207 9.17285C9.35112 9.35164 9.41693 9.55741 9.41699 9.79004C9.41691 10.0198 9.35534 10.2235 9.2334 10.3994C9.1113 10.5752 8.94217 10.7142 8.72656 10.8135C8.51079 10.9127 8.26147 10.9619 7.98047 10.9619C7.71082 10.9619 7.46771 10.9181 7.25195 10.8301C7.03618 10.742 6.86207 10.618 6.73145 10.459C6.60394 10.2973 6.53486 10.1091 6.52344 9.89648H4.66504C4.67365 10.4048 4.8205 10.8541 5.10449 11.2432C5.39138 11.6294 5.78219 11.9337 6.27637 12.1553C6.77333 12.3739 7.34052 12.4833 7.97656 12.4834C8.62955 12.4834 9.2094 12.3727 9.71484 12.1514C10.2202 11.9299 10.6164 11.6253 10.9033 11.2393C11.193 10.853 11.3367 10.411 11.334 9.91406C11.3368 9.37146 11.1691 8.91938 10.8311 8.55859C10.4958 8.19512 10.0071 7.97201 9.36523 7.88965V7.82129C9.85362 7.73327 10.2508 7.52564 10.5547 7.19922C10.8612 6.8727 11.0135 6.46478 11.0107 5.97656C11.0136 5.51654 10.8884 5.10161 10.6357 4.73242C10.3858 4.36031 10.0346 4.06444 9.58301 3.8457C9.13139 3.62704 8.60407 3.5176 8.00195 3.51758Z" fill="#292522" style="fill:#292522;fill:color(display-p3 0.1608 0.1451 0.1333);fill-opacity:1;"/>
</svg>
