<svg width="16" height="16" viewBox="0 0 16 16" fill="none" xmlns="http://www.w3.org/2000/svg">
<path d="M8 0C12.4183 0 16 3.58172 16 8C16 12.4183 12.4183 16 8 16C3.58172 16 0 12.4183 0 8C0 3.58172 3.58172 0 8 0ZM5.3916 3.57715L4.97852 8.17969L6.61914 8.47363C6.75263 8.2919 6.93922 8.14806 7.17773 8.04297C7.419 7.93803 7.66741 7.88577 7.92285 7.88574C8.21545 7.88859 8.47586 7.95526 8.70312 8.08594C8.93019 8.2166 9.10759 8.39903 9.23535 8.63184C9.36579 8.86464 9.43164 9.13487 9.43164 9.44141C9.43152 9.74212 9.36789 10.0095 9.24023 10.2422C9.11529 10.4721 8.94003 10.6526 8.71582 10.7832C8.49428 10.911 8.23792 10.9756 7.94824 10.9756C7.58495 10.9755 7.27087 10.8701 7.00684 10.6602C6.74276 10.45 6.60105 10.1748 6.58105 9.83691H4.79102C4.80246 10.3396 4.9462 10.7867 5.22168 11.1758C5.4972 11.5646 5.86944 11.8703 6.33789 12.0918C6.8093 12.3132 7.34626 12.4238 7.94824 12.4238C8.59588 12.4238 9.16473 12.2946 9.65332 12.0361C10.1446 11.7748 10.5271 11.4162 10.7998 10.9619C11.075 10.5049 11.2117 9.98205 11.209 9.39453C11.2118 8.83504 11.093 8.34002 10.8545 7.91113C10.6159 7.4795 10.2907 7.13968 9.87891 6.89258C9.46702 6.64548 8.99815 6.52246 8.47266 6.52246C8.08917 6.52247 7.74225 6.59332 7.43262 6.73535C7.12324 6.87736 6.8916 7.05668 6.73828 7.27246H6.6875L6.91309 5.08594H10.7266V3.57715H5.3916Z" fill="#292522" style="fill:#292522;fill:color(display-p3 0.1608 0.1451 0.1333);fill-opacity:1;"/>
</svg>
