<svg width="16" height="16" viewBox="0 0 16 16" fill="none" xmlns="http://www.w3.org/2000/svg">
<path d="M8 0C12.4183 0 16 3.58172 16 8C16 12.4183 12.4183 16 8 16C3.58172 16 0 12.4183 0 8C0 3.58172 3.58172 0 8 0ZM7.8877 3.51758C7.23736 3.51474 6.66616 3.6441 6.1748 3.90527C5.68617 4.1638 5.30495 4.52211 5.03223 4.97949C4.75968 5.43673 4.62513 5.958 4.62793 6.54297C4.628 7.08534 4.74372 7.56904 4.97656 7.99219C5.20949 8.41522 5.52841 8.74789 5.93164 8.98926C6.33481 9.23043 6.79382 9.35151 7.30762 9.35156C7.62847 9.35151 7.93187 9.30153 8.21582 9.20215C8.50255 9.10273 8.75705 8.96199 8.97852 8.78027C9.19993 8.59572 9.37621 8.37559 9.50684 8.12012H9.56641C9.56349 8.98343 9.41451 9.6641 9.11914 10.1611C8.82377 10.6552 8.39114 10.9022 7.82324 10.9023C7.48843 10.9023 7.20659 10.8155 6.97949 10.6426C6.75253 10.4666 6.60328 10.2191 6.53223 9.90137H4.71289C4.76978 10.3897 4.93337 10.8308 5.20312 11.2227C5.47577 11.6114 5.83559 11.9194 6.28125 12.1465C6.72704 12.3707 7.24126 12.4834 7.82324 12.4834C8.36272 12.4833 8.85175 12.3781 9.28906 12.168C9.72644 11.9549 10.1006 11.6454 10.4102 11.2393C10.7197 10.8331 10.9573 10.3401 11.1221 9.76074C11.2896 9.17848 11.373 8.5157 11.373 7.77441C11.3702 6.98512 11.2721 6.31878 11.0791 5.77637C10.8889 5.23132 10.629 4.79333 10.2998 4.46387C9.97325 4.13447 9.6 3.89375 9.18262 3.74316C8.76817 3.59277 8.33617 3.51765 7.8877 3.51758ZM7.90039 4.9668C8.18142 4.96689 8.4349 5.03667 8.65918 5.17578C8.88313 5.31491 9.05985 5.49972 9.1875 5.72949C9.31505 5.95939 9.37997 6.21303 9.38281 6.48828C9.3827 6.69533 9.34515 6.89178 9.26855 7.07617C9.19186 7.26069 9.08452 7.42445 8.94824 7.56641C8.81486 7.70536 8.65713 7.81507 8.47559 7.89453C8.29395 7.97397 8.09564 8.01361 7.88281 8.01367C7.59929 8.0136 7.34626 7.94657 7.125 7.81348C6.90643 7.67722 6.7323 7.49459 6.60449 7.26758C6.47965 7.03767 6.41707 6.77881 6.41699 6.49219C6.41415 6.2082 6.47674 5.95076 6.60449 5.7207C6.73513 5.49067 6.91134 5.30725 7.13281 5.1709C7.35721 5.03459 7.61352 4.9668 7.90039 4.9668Z" fill="#292522" style="fill:#292522;fill:color(display-p3 0.1608 0.1451 0.1333);fill-opacity:1;"/>
</svg>
