<svg width="16" height="16" viewBox="0 0 16 16" fill="none" xmlns="http://www.w3.org/2000/svg">
<path d="M8 0C12.4183 0 16 3.58172 16 8C16 12.4183 12.4183 16 8 16C3.58172 16 0 12.4183 0 8C0 3.58172 3.58172 0 8 0ZM8.00781 3.57715C7.41133 3.57715 6.87574 3.6866 6.40137 3.90527C5.92987 4.12117 5.55474 4.42122 5.27637 4.80469C4.99816 5.18807 4.85427 5.6312 4.8457 6.13379H6.61426C6.62282 5.9125 6.68971 5.7193 6.81445 5.55469C6.93942 5.38996 7.10617 5.26287 7.31348 5.1748C7.5207 5.08406 7.74927 5.03907 7.99902 5.03906C8.24609 5.03906 8.46187 5.08601 8.64648 5.17969C8.83374 5.27336 8.97883 5.40392 9.08105 5.57129C9.18596 5.7359 9.2392 5.92804 9.23926 6.14648C9.23917 6.37632 9.1797 6.57882 9.06055 6.75195C8.9413 6.92218 8.77325 7.05583 8.55762 7.15234C8.34464 7.24886 8.09857 7.29783 7.82031 7.29785H7.00586V8.65234H7.82031C8.14978 8.65236 8.43426 8.70341 8.67285 8.80566C8.91411 8.90792 9.0988 9.05072 9.22656 9.23242C9.35687 9.41116 9.42279 9.61708 9.42285 9.84961C9.42276 10.0794 9.3612 10.283 9.23926 10.459C9.11715 10.6349 8.94812 10.7737 8.73242 10.873C8.51656 10.9724 8.2675 11.0215 7.98633 11.0215C7.71656 11.0215 7.47365 10.9776 7.25781 10.8896C7.04204 10.8016 6.86796 10.6775 6.7373 10.5186C6.60981 10.3569 6.54073 10.1687 6.5293 9.95605H4.6709C4.67951 10.4644 4.82636 10.9137 5.11035 11.3027C5.39726 11.6889 5.78804 11.9933 6.28223 12.2148C6.77927 12.4335 7.34627 12.543 7.98242 12.543C8.63558 12.5429 9.21517 12.4324 9.7207 12.2109C10.2262 11.9894 10.6223 11.6849 10.9092 11.2988C11.1988 10.9126 11.3426 10.4706 11.3398 9.97363C11.3427 9.43115 11.1748 8.97892 10.8369 8.61816C10.5017 8.2547 10.0129 8.03159 9.37109 7.94922V7.88086C9.8596 7.79281 10.2566 7.58534 10.5605 7.25879C10.867 6.93227 11.0193 6.52435 11.0166 6.03613C11.0194 5.57621 10.8941 5.16113 10.6416 4.79199C10.3917 4.41994 10.0404 4.12401 9.58887 3.90527C9.13721 3.68654 8.61001 3.57717 8.00781 3.57715Z" fill="#FBF1E5" style="fill:#FBF1E5;fill:color(display-p3 0.9843 0.9451 0.8980);fill-opacity:1;"/>
</svg>
