<svg width="16" height="16" viewBox="0 0 16 16" fill="none" xmlns="http://www.w3.org/2000/svg">
<path d="M8 0C12.4183 0 16 3.58172 16 8C16 12.4183 12.4183 16 8 16C3.58172 16 0 12.4183 0 8C0 3.58172 3.58172 0 8 0ZM7.55664 3.57715C6.94883 3.57719 6.41211 3.69278 5.94629 3.92285C5.48052 4.15296 5.11784 4.47807 4.85938 4.89844C4.60108 5.31877 4.47168 5.81497 4.47168 6.38574H6.22363C6.22363 6.10751 6.27695 5.86667 6.38477 5.66504C6.49268 5.46343 6.64696 5.30911 6.8457 5.20117C7.04447 5.0933 7.27707 5.0391 7.54395 5.03906C7.79963 5.03906 8.02876 5.09011 8.23047 5.19238C8.432 5.29181 8.5916 5.43566 8.70801 5.62305C8.82415 5.80754 8.88184 6.02789 8.88184 6.2832C8.88177 6.51313 8.83489 6.72803 8.74121 6.92676C8.64747 7.12257 8.50974 7.32303 8.32812 7.52734C8.14919 7.73182 7.92717 7.96221 7.66309 8.21777L4.55664 11.0947V12.4238H10.7783V10.915H7.11426V10.8555L8.3877 9.60742C8.98694 9.06214 9.45172 8.59421 9.78125 8.20508C10.1106 7.81326 10.3399 7.45662 10.4678 7.13574C10.5984 6.81488 10.663 6.48856 10.6631 6.15918C10.663 5.65667 10.5337 5.2103 10.2754 4.82129C10.0169 4.43234 9.65507 4.12785 9.18945 3.90918C8.72638 3.68759 8.18164 3.57715 7.55664 3.57715Z" fill="#292522" style="fill:#292522;fill:color(display-p3 0.1608 0.1451 0.1333);fill-opacity:1;"/>
</svg>
