<svg width="16" height="16" viewBox="0 0 16 16" fill="none" xmlns="http://www.w3.org/2000/svg">
<path d="M8 0C12.4183 0 16 3.58172 16 8C16 12.4183 12.4183 16 8 16C3.58172 16 0 12.4183 0 8C0 3.58172 3.58172 0 8 0ZM7.92188 3.51758C7.33405 3.5176 6.80863 3.61981 6.3457 3.82422C5.88556 4.02592 5.52296 4.30509 5.25879 4.66016C4.99495 5.01218 4.86239 5.41395 4.8623 5.86523C4.8624 6.34231 5.0072 6.76237 5.29688 7.12305C5.58661 7.48079 5.96492 7.70706 6.43066 7.80078V7.86035C6.07567 7.91716 5.75463 8.04751 5.46777 8.25195C5.18105 8.45356 4.95368 8.70806 4.78613 9.01465C4.6215 9.31852 4.53809 9.65312 4.53809 10.0166C4.53826 10.4879 4.68403 10.9103 4.97363 11.2822C5.26336 11.654 5.66271 11.9483 6.1709 12.1641C6.68211 12.377 7.26588 12.4834 7.92188 12.4834C8.57794 12.4834 9.16052 12.377 9.66895 12.1641C10.1801 11.9482 10.5813 11.6542 10.8711 11.2822C11.1607 10.9103 11.3066 10.4879 11.3096 10.0166C11.3067 9.65311 11.2201 9.31853 11.0498 9.01465C10.8822 8.708 10.6549 8.45359 10.3682 8.25195C10.0842 8.04747 9.76728 7.9172 9.41797 7.86035V7.80078C9.87516 7.70705 10.2504 7.48077 10.543 7.12305C10.8355 6.76521 10.9834 6.34514 10.9863 5.86523C10.9834 5.41668 10.8489 5.01614 10.585 4.66406C10.3208 4.30907 9.95706 4.02873 9.49414 3.82422C9.03401 3.61979 8.50977 3.51758 7.92188 3.51758ZM7.92188 8.57129C8.20597 8.57129 8.45801 8.62855 8.67676 8.74219C8.8952 8.85294 9.06857 9.00634 9.19629 9.20215C9.32393 9.39518 9.38765 9.61851 9.3877 9.87109C9.38761 10.118 9.32509 10.3371 9.2002 10.5273C9.07811 10.7146 8.90792 10.8628 8.68945 10.9707C8.47074 11.0758 8.2144 11.1289 7.92188 11.1289C7.63234 11.1289 7.37673 11.0757 7.15527 10.9707C6.93382 10.8628 6.76179 10.7147 6.63965 10.5273C6.5176 10.3371 6.45614 10.118 6.45605 9.87109C6.4561 9.61851 6.51875 9.39518 6.64355 9.20215C6.77135 9.00622 6.9465 8.85296 7.16797 8.74219C7.38949 8.62861 7.64074 8.57131 7.92188 8.57129ZM7.92188 4.90723C8.17175 4.90723 8.39069 4.95633 8.57812 5.05566C8.76553 5.15225 8.91357 5.2877 9.02148 5.46094C9.12927 5.6313 9.18359 5.83053 9.18359 6.05762C9.18349 6.28746 9.12933 6.49103 9.02148 6.66699C8.91359 6.84284 8.7643 6.98074 8.57422 7.08008C8.38393 7.17944 8.16611 7.22949 7.92188 7.22949C7.67785 7.22947 7.46068 7.17931 7.27051 7.08008C7.08029 6.98071 6.9302 6.84296 6.82227 6.66699C6.71443 6.49103 6.66124 6.28744 6.66113 6.05762C6.66113 5.83053 6.71342 5.6313 6.81836 5.46094C6.92628 5.2877 7.07538 5.15225 7.26562 5.05566C7.45592 4.95626 7.67479 4.90725 7.92188 4.90723Z" fill="#FBF1E5" style="fill:#FBF1E5;fill:color(display-p3 0.9843 0.9451 0.8980);fill-opacity:1;"/>
</svg>
