<svg width="16" height="16" viewBox="0 0 16 16" fill="none" xmlns="http://www.w3.org/2000/svg">
<path d="M8 0C12.4183 0 16 3.58172 16 8C16 12.4183 12.4183 16 8 16C3.58172 16 0 12.4183 0 8C0 3.58172 3.58172 0 8 0ZM5.44434 3.63672L5.03125 8.23926L6.67188 8.5332C6.80536 8.35148 6.99196 8.20763 7.23047 8.10254C7.47173 7.9976 7.72014 7.94534 7.97559 7.94531C8.2682 7.94815 8.52859 8.01483 8.75586 8.14551C8.98294 8.27617 9.16032 8.45859 9.28809 8.69141C9.41853 8.92422 9.48438 9.19444 9.48438 9.50098C9.48426 9.80169 9.42062 10.0691 9.29297 10.3018C9.16802 10.5316 8.99276 10.7122 8.76855 10.8428C8.54701 10.9705 8.29066 11.0352 8.00098 11.0352C7.63768 11.0351 7.3236 10.9297 7.05957 10.7197C6.79549 10.5096 6.65378 10.2343 6.63379 9.89648H4.84375C4.8552 10.3991 4.99894 10.8463 5.27441 11.2354C5.54993 11.6242 5.92217 11.9299 6.39062 12.1514C6.86204 12.3728 7.39899 12.4834 8.00098 12.4834C8.64861 12.4834 9.21746 12.3542 9.70605 12.0957C10.1973 11.8344 10.5799 11.4758 10.8525 11.0215C11.1278 10.5644 11.2644 10.0416 11.2617 9.4541C11.2646 8.8946 11.1457 8.39959 10.9072 7.9707C10.6686 7.53906 10.3434 7.19926 9.93164 6.95215C9.51974 6.70505 9.0509 6.58203 8.52539 6.58203C8.1419 6.58204 7.79499 6.65289 7.48535 6.79492C7.17598 6.93692 6.94433 7.11626 6.79102 7.33203H6.74023L6.96582 5.14551H10.7793V3.63672H5.44434Z" fill="#FBF1E5" style="fill:#FBF1E5;fill:color(display-p3 0.9843 0.9451 0.8980);fill-opacity:1;"/>
</svg>
