<svg width="16" height="16" viewBox="0 0 16 16" fill="none" xmlns="http://www.w3.org/2000/svg">
<path d="M8 0C12.4183 0 16 3.58172 16 8C16 12.4183 12.4183 16 8 16C3.58172 16 0 12.4183 0 8C0 3.58172 3.58172 0 8 0ZM7.93164 3.51758C7.32383 3.51762 6.78711 3.63321 6.32129 3.86328C5.85552 4.09339 5.49284 4.4185 5.23438 4.83887C4.97608 5.2592 4.84668 5.7554 4.84668 6.32617H6.59863C6.59863 6.04794 6.65195 5.8071 6.75977 5.60547C6.86768 5.40386 7.02196 5.24954 7.2207 5.1416C7.41947 5.03373 7.65207 4.97953 7.91895 4.97949C8.17463 4.97949 8.40376 5.03054 8.60547 5.13281C8.807 5.23224 8.9666 5.37609 9.08301 5.56348C9.19915 5.74797 9.25684 5.96832 9.25684 6.22363C9.25677 6.45356 9.20989 6.66846 9.11621 6.86719C9.02247 7.063 8.88474 7.26346 8.70312 7.46777C8.52419 7.67225 8.30217 7.90264 8.03809 8.1582L4.93164 11.0352V12.3643H11.1533V10.8555H7.48926V10.7959L8.7627 9.54785C9.36194 9.00257 9.82672 8.53464 10.1562 8.14551C10.4856 7.75369 10.7149 7.39705 10.8428 7.07617C10.9734 6.75531 11.038 6.42899 11.0381 6.09961C11.038 5.5971 10.9087 5.15073 10.6504 4.76172C10.3919 4.37277 10.0301 4.06828 9.56445 3.84961C9.10138 3.62802 8.55664 3.51758 7.93164 3.51758Z" fill="#FBF1E5" style="fill:#FBF1E5;fill:color(display-p3 0.9843 0.9451 0.8980);fill-opacity:1;"/>
</svg>
