<svg width="32" height="32" viewBox="0 0 32 32" fill="none" xmlns="http://www.w3.org/2000/svg">
<path fill-rule="evenodd" clip-rule="evenodd" d="M22 2.74951C26.0041 2.74951 29.25 5.99643 29.25 10.0005C29.2498 12.4958 27.9886 14.6963 26.0693 16.0005C27.9886 17.3048 29.25 19.5051 29.25 22.0005C29.2497 26.0044 26.0039 29.2505 22 29.2505C19.5046 29.2505 17.3043 27.989 16 26.0698C14.6957 27.989 12.4953 29.2505 10 29.2505C5.9961 29.2505 2.75026 26.0044 2.75 22.0005C2.75 19.5054 4.01085 17.3048 5.92969 16.0005C4.01084 14.6962 2.75016 12.4955 2.75 10.0005C2.75 5.99643 5.99594 2.74951 10 2.74951C12.4952 2.74951 14.6957 4.0112 16 5.93018C17.3043 4.01121 19.5048 2.74951 22 2.74951ZM10 17.2505C7.37665 17.2505 5.25 19.3771 5.25 22.0005C5.25026 24.6236 7.37681 26.7505 10 26.7505C12.6232 26.7505 14.7497 24.6236 14.75 22.0005V21.0981C14.2237 20.9696 13.728 20.7636 13.2773 20.4897L10.666 23.1011L8.89844 21.3335L11.5098 18.7222C11.2361 18.2717 11.0289 17.7765 10.9004 17.2505H10ZM21.0996 17.2505C20.971 17.7767 20.7631 18.2716 20.4893 18.7222L23.1006 21.3335L21.333 23.1011L18.7217 20.4897C18.2712 20.7634 17.776 20.9696 17.25 21.0981V22.0005C17.2503 24.6236 19.3768 26.7505 22 26.7505C24.6232 26.7505 26.7497 24.6236 26.75 22.0005C26.75 19.3771 24.6234 17.2505 22 17.2505H21.0996ZM16 13.2505C14.4812 13.2505 13.25 14.4816 13.25 16.0005C13.2503 17.5191 14.4813 18.7505 16 18.7505C17.5187 18.7505 18.7497 17.5191 18.75 16.0005C18.75 14.4816 17.5188 13.2505 16 13.2505ZM10 5.25049C7.37665 5.25049 5.25 7.37714 5.25 10.0005C5.25026 12.6236 7.37681 14.7505 10 14.7505H10.9004C11.0289 14.2241 11.2359 13.7286 11.5098 13.2778L8.89844 10.6665L10.666 8.89893L13.2773 11.5103C13.7281 11.2363 14.2236 11.0295 14.75 10.9009V10.0005C14.75 7.37714 12.6234 5.25049 10 5.25049ZM22 5.25049C19.3766 5.25049 17.25 7.37713 17.25 10.0005V10.9009C17.7759 11.0294 18.2712 11.2357 18.7217 11.5093L21.333 8.89893L23.1006 10.6665L20.4893 13.2769C20.7634 13.7279 20.971 14.2237 21.0996 14.7505H22C24.6232 14.7505 26.7497 12.6236 26.75 10.0005C26.75 7.37713 24.6234 5.25049 22 5.25049Z" fill="#292522" style="fill:#292522;fill:color(display-p3 0.1608 0.1451 0.1333);fill-opacity:1;"/>
</svg>
