<svg width="32" height="32" viewBox="0 0 32 32" fill="none" xmlns="http://www.w3.org/2000/svg">
<path fill-rule="evenodd" clip-rule="evenodd" d="M23.916 12.0835H24.666C27.1973 12.0835 29.249 14.1362 29.249 16.6675C29.2486 19.1984 27.197 21.2505 24.666 21.2505H23.916V29.2505H5.41602V9.41748H23.916V12.0835ZM7.91602 26.7505H21.416V11.9175H7.91602V26.7505ZM23.916 18.7505H24.666C25.8163 18.7505 26.7486 17.8177 26.749 16.6675C26.749 15.5169 25.8166 14.5835 24.666 14.5835H23.916V18.7505Z" fill="#292522" style="fill:#292522;fill:color(display-p3 0.1608 0.1451 0.1333);fill-opacity:1;"/>
<path d="M10.583 7.91748H8.08301V2.74951H10.583V7.91748Z" fill="#292522" style="fill:#292522;fill:color(display-p3 0.1608 0.1451 0.1333);fill-opacity:1;"/>
<path d="M15.916 7.91748H13.416V2.74951H15.916V7.91748Z" fill="#292522" style="fill:#292522;fill:color(display-p3 0.1608 0.1451 0.1333);fill-opacity:1;"/>
<path d="M21.249 7.91748H18.749V2.74951H21.249V7.91748Z" fill="#292522" style="fill:#292522;fill:color(display-p3 0.1608 0.1451 0.1333);fill-opacity:1;"/>
</svg>
