<svg width="32" height="32" viewBox="0 0 32 32" fill="none" xmlns="http://www.w3.org/2000/svg">
<path d="M30.583 15.8174V26.8506H28.083V18.3174H22.0498V26.8506H19.5488V18.3174H13.5156V26.8506H11.0156V18.3174H4.98242V26.8506H2.48242V15.8174H30.583Z" fill="#292522" style="fill:#292522;fill:color(display-p3 0.1608 0.1451 0.1333);fill-opacity:1;"/>
<path fill-rule="evenodd" clip-rule="evenodd" d="M25.0664 5.15039C27.6502 5.15047 29.7451 7.24524 29.7451 9.8291C29.7449 12.4128 27.6501 14.5077 25.0664 14.5078C23.1662 14.5078 21.5314 13.3743 20.7988 11.7471C20.0661 13.3738 18.433 14.5078 16.5332 14.5078C14.633 14.5078 12.9982 13.3743 12.2656 11.7471C11.5329 13.3738 9.89983 14.5078 8 14.5078C5.41622 14.5078 3.3215 12.4128 3.32129 9.8291C3.32129 7.2452 5.4161 5.15039 8 5.15039C9.89953 5.15045 11.5337 6.28287 12.2666 7.90918C12.9995 6.28284 14.6336 5.15039 16.5332 5.15039C18.4327 5.15045 20.0669 6.28287 20.7998 7.90918C21.5327 6.28284 23.1668 5.15039 25.0664 5.15039ZM8 7.65039C6.79681 7.65039 5.82129 8.62591 5.82129 9.8291C5.8215 11.0321 6.79694 12.0078 8 12.0078C9.203 12.0077 10.1785 11.0321 10.1787 9.8291C10.1787 8.62596 9.20313 7.65047 8 7.65039ZM16.5332 7.65039C15.33 7.65039 14.3545 8.62591 14.3545 9.8291C14.3547 11.0321 15.3301 12.0078 16.5332 12.0078C17.7362 12.0077 18.7117 11.0321 18.7119 9.8291C18.7119 8.62596 17.7363 7.65047 16.5332 7.65039ZM25.0664 7.65039C23.8632 7.65039 22.8877 8.62591 22.8877 9.8291C22.8879 11.0321 23.8633 12.0078 25.0664 12.0078C26.2694 12.0077 27.2449 11.0321 27.2451 9.8291C27.2451 8.62596 26.2695 7.65047 25.0664 7.65039Z" fill="#292522" style="fill:#292522;fill:color(display-p3 0.1608 0.1451 0.1333);fill-opacity:1;"/>
</svg>
