<svg width="32" height="32" viewBox="0 0 32 32" fill="none" xmlns="http://www.w3.org/2000/svg">
<path fill-rule="evenodd" clip-rule="evenodd" d="M16 13.4165C17.4266 13.4165 18.5837 14.573 18.584 15.9995C18.584 17.4263 17.4268 18.5835 16 18.5835C14.5734 18.5833 13.417 17.4262 13.417 15.9995C13.4173 14.5731 14.5736 13.4167 16 13.4165ZM16 15.9165C15.9543 15.9167 15.9173 15.9538 15.917 15.9995C15.917 16.0454 15.9541 16.0833 16 16.0835C16.046 16.0835 16.084 16.0456 16.084 15.9995C16.0837 15.9537 16.0459 15.9165 16 15.9165Z" fill="#292522" style="fill:#292522;fill:color(display-p3 0.1608 0.1451 0.1333);fill-opacity:1;"/>
<path fill-rule="evenodd" clip-rule="evenodd" d="M16 8.0835C20.3721 8.08367 23.916 11.6283 23.916 16.0005C23.9157 20.3723 20.3719 23.9163 16 23.9165C11.6279 23.9165 8.08332 20.3724 8.08301 16.0005C8.08301 11.6282 11.6278 8.0835 16 8.0835ZM16 10.5835C13.0085 10.5835 10.583 13.009 10.583 16.0005C10.5833 18.9917 13.0087 21.4165 16 21.4165C18.9912 21.4163 21.4157 18.9916 21.416 16.0005C21.416 13.0091 18.9914 10.5837 16 10.5835Z" fill="#292522" style="fill:#292522;fill:color(display-p3 0.1608 0.1451 0.1333);fill-opacity:1;"/>
<path fill-rule="evenodd" clip-rule="evenodd" d="M16 2.74951C23.3178 2.74951 29.25 8.68272 29.25 16.0005C29.2497 23.3181 23.3177 29.2505 16 29.2505C8.6824 29.2505 2.75026 23.3181 2.75 16.0005C2.75 8.68272 8.68223 2.74951 16 2.74951ZM16 5.25049C10.0629 5.25049 5.25 10.0634 5.25 16.0005C5.25026 21.9374 10.0631 26.7505 16 26.7505C21.9369 26.7505 26.7497 21.9374 26.75 16.0005C26.75 10.0634 21.9371 5.25049 16 5.25049Z" fill="#292522" style="fill:#292522;fill:color(display-p3 0.1608 0.1451 0.1333);fill-opacity:1;"/>
</svg>
