<svg width="32" height="32" viewBox="0 0 32 32" fill="none" xmlns="http://www.w3.org/2000/svg">
<path d="M16.0674 22.5848L16.1875 22.5917L16.2168 22.5927L16.2461 22.5956L16.4717 22.6298C17.5802 22.8497 18.4158 23.8261 18.416 24.9999C18.4158 26.3342 17.3344 27.4157 16 27.4159C14.7489 27.4159 13.7196 26.4654 13.5957 25.247L13.583 24.9999L13.5957 24.7528C13.7195 23.5343 14.7488 22.5829 16 22.5829H16.0342L16.0674 22.5848Z" fill="#292522" style="fill:#292522;fill:color(display-p3 0.1608 0.1451 0.1333);fill-opacity:1;"/>
<path d="M8.23242 16.7665C12.7669 13.2303 19.2341 13.2303 23.7686 16.7665L22.2314 18.7382C18.6008 15.9068 13.4012 15.9069 9.77051 18.7382L8.23242 16.7665Z" fill="#292522" style="fill:#292522;fill:color(display-p3 0.1608 0.1451 0.1333);fill-opacity:1;"/>
<path d="M3.23047 9.77625C10.6811 3.96098 21.3189 3.96098 28.7695 9.77625L27.2305 11.747C20.6841 6.63779 11.3159 6.63779 4.76953 11.747L3.23047 9.77625Z" fill="#292522" style="fill:#292522;fill:color(display-p3 0.1608 0.1451 0.1333);fill-opacity:1;"/>
</svg>
